<svg width="113" height="24" viewBox="0 0 113 24" fill="none" xmlns="http://www.w3.org/2000/svg">
<g clip-path="url(#clip0_91_807)">
<path d="M12.7185 10.7868C13.3866 11.1819 13.612 12.0444 13.2169 12.7146C12.8239 13.3848 11.9614 13.6102 11.2892 13.2131C10.619 12.8201 10.3977 11.9576 10.7886 11.2874C11.1837 10.6172 12.0483 10.3938 12.7185 10.7868Z" fill="#F35218"/>
<path d="M8.14955 8.10001C8.81973 8.49508 9.04312 9.35762 8.65011 10.0278C8.25504 10.698 7.39044 10.9213 6.72234 10.5283C6.05216 10.1333 5.82877 9.26867 6.21971 8.60057C6.61271 7.9304 7.47731 7.70701 8.14749 8.10001H8.14955Z" fill="#F35218"/>
<path d="M17.2875 13.4717C17.9577 13.8647 18.1831 14.7273 17.7881 15.3995C17.3951 16.0718 16.5305 16.2952 15.8624 15.9001C15.1922 15.505 14.9688 14.6404 15.3618 13.9723C15.7548 13.3042 16.6153 13.0787 17.2875 13.4717Z" fill="#F35218"/>
<path d="M3.58053 5.4152C4.2507 5.8082 4.47202 6.6728 4.08109 7.34297C3.68602 8.01314 2.82348 8.23653 2.15331 7.84353C1.48314 7.44846 1.25768 6.58593 1.65275 5.91576C2.04782 5.24558 2.91242 5.02219 3.58259 5.41726L3.58053 5.4152Z" fill="#F35218"/>
<path d="M21.8346 16.1648C22.5069 16.5599 22.7303 17.4224 22.3352 18.0905C21.9443 18.7627 21.0817 18.9861 20.4095 18.5911C19.7414 18.196 19.5159 17.3355 19.9131 16.6633C20.3061 15.9952 21.1686 15.7697 21.8367 16.1648H21.8346Z" fill="#F35218"/>
<path d="M8.09206 15.8442C8.76844 15.4615 9.00631 14.6031 8.62158 13.9267C8.23685 13.2483 7.38052 13.0125 6.70414 13.3931C6.02777 13.7778 5.78783 14.6362 6.17049 15.3126C6.55315 15.991 7.41361 16.2289 8.09206 15.8442Z" fill="#F35218"/>
<path d="M17.3147 10.6214C17.991 10.2388 18.2289 9.38036 17.8442 8.70191C17.4615 8.02553 16.601 7.78766 15.9226 8.17032C15.2483 8.55298 15.0104 9.41138 15.3952 10.0898C15.7778 10.7662 16.6362 11.0041 17.3147 10.6214Z" fill="#F35218"/>
<path d="M3.4813 18.4546C4.15561 18.0719 4.39554 17.2135 4.01288 16.5371C3.62816 15.8607 2.76976 15.6229 2.09131 16.0055C1.41494 16.3903 1.17913 17.2487 1.55973 17.925C1.94238 18.6035 2.80285 18.8413 3.4813 18.4546Z" fill="#F35218"/>
<path d="M21.905 8.00276C22.5813 7.61803 22.8213 6.75964 22.4366 6.08326C22.0539 5.40688 21.1934 5.16901 20.515 5.55167C19.8407 5.93433 19.6007 6.7948 19.9855 7.47117C20.3681 8.14548 21.2265 8.38542 21.905 8.00276Z" fill="#F35218"/>
<path d="M13.457 6.71824C13.4508 7.49597 12.8137 8.12064 12.038 8.1165C11.2582 8.1103 10.6356 7.47529 10.6377 6.69756C10.646 5.91983 11.2831 5.2931 12.0566 5.2993C12.8364 5.30344 13.4632 5.93638 13.457 6.71824Z" fill="#F35218"/>
<path d="M13.3747 17.3169C13.3706 18.0946 12.7356 18.7214 11.9579 18.7152C11.1801 18.711 10.5555 18.076 10.5596 17.2962C10.5658 16.5164 11.2008 15.8918 11.9785 15.9C12.7542 15.9042 13.3809 16.5392 13.3747 17.3169Z" fill="#F35218"/>
<path d="M13.4969 1.42103C13.4907 2.19669 12.8556 2.82343 12.0779 2.81722C11.3023 2.81102 10.6734 2.17601 10.6817 1.40035C10.6859 0.62055 11.3188 -0.00411643 12.0986 2.0429e-05C12.8763 0.00622572 13.501 0.641234 13.4969 1.42103Z" fill="#F35218"/>
<path d="M13.3231 22.5997C13.3148 23.3774 12.6798 24.0042 11.9021 24C11.1264 23.9938 10.4997 23.3588 10.5059 22.579C10.5121 21.8033 11.1471 21.1745 11.9228 21.1828C12.7026 21.189 13.3272 21.824 13.3231 22.5997Z" fill="#F35218"/>
<path d="M22.5933 13.3889C23.3689 13.3869 24.0019 12.756 23.9998 11.9803C23.9998 11.2026 23.3689 10.5717 22.5912 10.5717C21.8135 10.5717 21.1826 11.2026 21.1826 11.9803C21.1847 12.758 21.8176 13.3889 22.5933 13.3889Z" fill="#F35218"/>
<path d="M8.0955 2.05601C8.47196 2.73653 8.22581 3.59493 7.5453 3.96931C6.86478 4.34783 6.00639 4.10169 5.62993 3.42325C5.25348 2.7448 5.49755 1.8864 6.17807 1.50995C6.85858 1.13142 7.71491 1.3755 8.0955 2.05601Z" fill="#F35218"/>
<path d="M18.3634 20.585C18.7398 21.2656 18.4937 22.1219 17.8153 22.4983C17.1347 22.8769 16.2784 22.6307 15.8999 21.9502C15.5234 21.2697 15.7654 20.4134 16.448 20.0348C17.1265 19.6584 17.9849 19.9025 18.3613 20.583L18.3634 20.585Z" fill="#F35218"/>
<path d="M18.6136 3.59693C18.2164 4.26917 17.3539 4.48842 16.6858 4.09542C16.0156 3.69828 15.7943 2.83574 16.1914 2.16557C16.5865 1.4954 17.4511 1.27408 18.1213 1.66915C18.7894 2.06629 19.0128 2.92882 18.6156 3.59693H18.6136Z" fill="#F35218"/>
<path d="M7.82076 21.8261C7.42569 22.4962 6.55902 22.7176 5.89092 22.3204C5.22074 21.9254 5.00149 21.0628 5.39656 20.3926C5.79163 19.7245 6.65624 19.5032 7.32434 19.8983C7.99244 20.2934 8.21583 21.1559 7.81869 21.824L7.82076 21.8261Z" fill="#F35218"/>
<path d="M1.41067 13.4282C2.1884 13.4282 2.8172 12.7953 2.8172 12.0176C2.8172 11.2378 2.18426 10.609 1.4086 10.611C0.630871 10.611 0 11.2419 0 12.0217C0 12.8015 0.63294 13.4282 1.41067 13.4282Z" fill="#F35218"/>
<path d="M30.0919 8.11011H37.6024V10.0855H35.081V16.1067H32.6092V10.0855H30.0898V8.11011H30.0919Z" fill="#333333"/>
<path d="M38.8184 8.11011H41.2943V16.1067H38.8184V8.11011Z" fill="#333333"/>
<path d="M42.6388 13.4612L44.9885 13.3143C45.0382 13.697 45.1437 13.9866 45.2988 14.1872C45.5532 14.5119 45.9172 14.6733 46.3909 14.6733C46.7446 14.6733 47.0156 14.5905 47.2059 14.4251C47.3982 14.2596 47.4934 14.0693 47.4934 13.85C47.4934 13.6432 47.4024 13.457 47.2204 13.2936C47.0383 13.1302 46.6184 12.9751 45.9565 12.8303C44.8727 12.5862 44.0991 12.2615 43.6378 11.8602C43.1724 11.4569 42.9408 10.9418 42.9408 10.3151C42.9408 9.90348 43.0587 9.51669 43.2965 9.15058C43.5344 8.78446 43.8923 8.49695 44.3721 8.29011C44.8499 8.0812 45.5056 7.97571 46.3371 7.97571C47.3589 7.97571 48.1387 8.166 48.6745 8.54453C49.2123 8.92512 49.5308 9.5291 49.6321 10.3585L47.3031 10.4951C47.239 10.1351 47.1107 9.87453 46.9122 9.70905C46.7136 9.54565 46.4406 9.46498 46.091 9.46498C45.8035 9.46498 45.5863 9.52496 45.4415 9.647C45.2947 9.76904 45.2223 9.91796 45.2223 10.0917C45.2223 10.22 45.2822 10.3337 45.4022 10.4351C45.518 10.5406 45.7952 10.6398 46.2316 10.7309C47.3114 10.9625 48.085 11.1983 48.5524 11.4383C49.0199 11.6761 49.3591 11.9698 49.5722 12.3235C49.7852 12.6773 49.8907 13.0703 49.8907 13.5088C49.8907 14.0217 49.75 14.4933 49.4667 14.9277C49.1833 15.36 48.7862 15.6889 48.2773 15.9123C47.7685 16.1357 47.1273 16.2474 46.3516 16.2474C44.9927 16.2474 44.0495 15.9847 43.5261 15.4614C43.0028 14.938 42.707 14.272 42.6367 13.4653L42.6388 13.4612Z" fill="#333333"/>
<path d="M56.0532 14.787H53.2463L52.8575 16.1067H50.334L53.3394 8.11011H56.0346L59.04 16.1067H56.4524L56.0511 14.787H56.0532ZM55.5402 13.0578L54.657 10.1847L53.7841 13.0578H55.5402Z" fill="#333333"/>
<path d="M59.8418 8.11011H62.1502L65.1618 12.5345V8.11011H67.4929V16.1067H65.1618L62.1667 11.7154V16.1067H59.8439V8.11011H59.8418Z" fill="#333333"/>
<path d="M69.1279 8.11011H75.751V9.81863H71.6038V11.0886H75.4511V12.7206H71.6038V14.2968H75.871V16.1067H69.13V8.11011H69.1279Z" fill="#333333"/>
<path d="M80.9279 8.11011H83.3976V14.1396H87.2531V16.1087H80.9258V8.11218L80.9279 8.11011Z" fill="#333333"/>
<path d="M93.2954 14.787H90.4885L90.0997 16.1067H87.5762L90.5816 8.11011H93.2768L96.2822 16.1067H93.6946L93.2954 14.787ZM92.7824 13.0578L91.8992 10.1847L91.0263 13.0578H92.7824Z" fill="#333333"/>
<path d="M97.0742 8.11011H101.699C102.471 8.11011 103.062 8.30247 103.476 8.68306C103.888 9.06572 104.094 9.53733 104.094 10.0999C104.094 10.5736 103.948 10.979 103.652 11.3162C103.455 11.5416 103.168 11.7195 102.791 11.8519C103.366 11.9884 103.788 12.2263 104.059 12.5634C104.33 12.9006 104.467 13.3226 104.467 13.8314C104.467 14.2471 104.372 14.6195 104.177 14.9504C103.985 15.2814 103.72 15.544 103.387 15.7364C103.178 15.8564 102.866 15.9433 102.448 15.9991C101.892 16.0715 101.521 16.1087 101.341 16.1087H97.0763V8.11218L97.0742 8.11011ZM99.5667 11.2458H100.64C101.027 11.2458 101.294 11.1797 101.445 11.0473C101.596 10.9149 101.672 10.7225 101.672 10.4723C101.672 10.2406 101.596 10.0586 101.445 9.92826C101.294 9.79795 101.031 9.73176 100.657 9.73176H99.5646V11.2479L99.5667 11.2458ZM99.5667 14.3878H100.828C101.252 14.3878 101.552 14.3113 101.728 14.1603C101.902 14.0093 101.991 13.8066 101.991 13.5521C101.991 13.3163 101.904 13.1261 101.732 12.9813C101.561 12.8385 101.257 12.7661 100.824 12.7661H99.5687V14.3857L99.5667 14.3878Z" fill="#333333"/>
<path d="M105.327 13.4612L107.679 13.3143C107.729 13.697 107.832 13.9866 107.989 14.1872C108.242 14.5119 108.608 14.6733 109.08 14.6733C109.431 14.6733 109.704 14.5905 109.894 14.4251C110.087 14.2596 110.182 14.0693 110.182 13.85C110.182 13.6432 110.091 13.457 109.909 13.2936C109.727 13.1302 109.305 12.9751 108.643 12.8303C107.559 12.5862 106.786 12.2615 106.324 11.8602C105.859 11.4569 105.625 10.9418 105.625 10.3151C105.625 9.90348 105.745 9.51669 105.983 9.15058C106.221 8.78446 106.581 8.49695 107.057 8.29011C107.534 8.0812 108.192 7.97571 109.024 7.97571C110.045 7.97571 110.825 8.166 111.361 8.54453C111.897 8.92512 112.215 9.5291 112.319 10.3585L109.99 10.4951C109.928 10.1351 109.797 9.87453 109.599 9.70905C109.4 9.54565 109.127 9.46498 108.778 9.46498C108.49 9.46498 108.273 9.52496 108.128 9.647C107.981 9.76904 107.909 9.91796 107.909 10.0917C107.909 10.22 107.969 10.3337 108.089 10.4351C108.205 10.5406 108.482 10.6398 108.918 10.7309C109.998 10.9625 110.771 11.1983 111.239 11.4383C111.706 11.6761 112.046 11.9698 112.261 12.3235C112.472 12.6773 112.579 13.0703 112.579 13.5088C112.579 14.0217 112.437 14.4933 112.153 14.9277C111.87 15.36 111.473 15.6889 110.964 15.9123C110.455 16.1357 109.814 16.2474 109.038 16.2474C107.679 16.2474 106.736 15.9847 106.213 15.4614C105.689 14.938 105.392 14.272 105.323 13.4653L105.327 13.4612Z" fill="#333333"/>
</g>
<defs>
<clipPath id="clip0_91_807">
<rect width="112.583" height="24" fill="white"/>
</clipPath>
</defs>
</svg>
