<svg width="13" height="13" viewBox="0 0 13 13" fill="none" xmlns="http://www.w3.org/2000/svg">
<g id="CaretDown">
<path id="Vector" d="M10.5155 5.26534L6.76552 9.01534C6.73069 9.0502 6.68934 9.07786 6.64381 9.09674C6.59829 9.11561 6.54949 9.12532 6.50021 9.12532C6.45093 9.12532 6.40213 9.11561 6.35661 9.09674C6.31108 9.07786 6.26972 9.0502 6.2349 9.01534L2.4849 5.26534C2.41453 5.19497 2.375 5.09954 2.375 5.00003C2.375 4.90051 2.41453 4.80508 2.4849 4.73471C2.55526 4.66435 2.6507 4.62482 2.75021 4.62482C2.84972 4.62482 2.94516 4.66435 3.01552 4.73471L6.50021 8.21987L9.9849 4.73471C10.0197 4.69987 10.0611 4.67223 10.1066 4.65338C10.1521 4.63452 10.2009 4.62482 10.2502 4.62482C10.2995 4.62482 10.3483 4.63452 10.3938 4.65338C10.4393 4.67223 10.4807 4.69987 10.5155 4.73471C10.5504 4.76955 10.578 4.81092 10.5969 4.85644C10.6157 4.90196 10.6254 4.95075 10.6254 5.00003C10.6254 5.0493 10.6157 5.09809 10.5969 5.14361C10.578 5.18913 10.5504 5.2305 10.5155 5.26534Z" fill="#343330"/>
</g>
</svg>
